#N canvas 1912 -8 1920 997 12;
#X obj 677 176 osc~ 220;
#X obj 762 605 dac~;
#X obj 881 179 expr 1 - $f1;
#X floatatom 878 210 5 0 0 0 - - -;
#X obj 878 233 sqrt;
#X floatatom 878 257 5 0 0 0 - - -;
#X floatatom 876 134 5 0 0 0 - - -;
#X obj 809 234 sqrt;
#X floatatom 809 258 5 0 0 0 - - -;
#X obj 741 377 *~;
#X obj 801 363 *~;
#X obj 1039 35 receive z;
#X obj 956 124 loadbang;
#X msg 963 150 1;
#X obj 1090 141 print;
#X obj 911 416 receive axis;
#X obj 1635 164 bng 15 250 50 0 empty empty empty 17 7 0 10 -262144
-1 -1;
#X obj 1658 164 bng 15 250 50 0 empty empty empty 17 7 0 10 -262144
-1 -1;
#X floatatom 1632 93 5 0 0 0 - - -;
#X obj 1635 128 sel -1 0 1;
#X obj 1682 163 bng 15 250 50 0 empty empty empty 17 7 0 10 -262144
-1 -1;
#X floatatom 1720 172 5 0 0 0 - - -;
#X obj 1731 231 > 1;
#X floatatom 1724 260 5 0 0 0 - - -;
#X obj 1698 337 bng 15 250 50 0 empty empty empty 17 7 0 10 -262144
-1 -1;
#X obj 790 513 /~;
#X obj 749 505 /~;
#X obj 1044 187 abs;
#X floatatom 1039 502 5 0 0 0 - - -;
#X obj 892 711 *~;
#X obj 882 459 abs;
#X obj 1010 568 > 1;
#X floatatom 1003 597 5 0 0 0 - - -;
#X obj 1427 506 f 0;
#X floatatom 1450 567 5 0 0 0 - - -;
#X floatatom 1417 275 5 0 0 0 - - -;
#X obj 1465 313 > 1;
#X floatatom 1458 341 5 0 0 0 - - -;
#X obj 1458 364 sel 0 1;
#X obj 1502 420 bng 15 250 50 0 empty empty empty 17 7 0 10 -262144
-1 -1;
#X obj 1524 449 bng 15 250 50 0 empty empty empty 17 7 0 10 -262144
-1 -1;
#X obj 1335 562 f 1;
#X floatatom 1338 607 5 0 0 0 - - -;
#X obj 1178 392 f 0;
#X floatatom 1201 453 5 0 0 0 - - -;
#X floatatom 1168 161 5 0 0 0 - - -;
#X obj 1216 199 > 1;
#X floatatom 1209 227 5 0 0 0 - - -;
#X obj 1209 250 sel 0 1;
#X obj 1253 306 bng 15 250 50 0 empty empty empty 17 7 0 10 -262144
-1 -1;
#X obj 1275 335 bng 15 250 50 0 empty empty empty 17 7 0 10 -262144
-1 -1;
#X obj 1123 401 f 1;
#X floatatom 1110 455 5 0 0 0 - - -;
#X obj 1140 841 f 0;
#X floatatom 1163 902 5 0 0 0 - - -;
#X floatatom 1130 610 5 0 0 0 - - -;
#X obj 1178 648 > 1;
#X floatatom 1171 676 5 0 0 0 - - -;
#X obj 1171 699 sel 0 1;
#X obj 1215 755 bng 15 250 50 0 empty empty empty 17 7 0 10 -262144
-1 -1;
#X obj 1237 784 bng 15 250 50 0 empty empty empty 17 7 0 10 -262144
-1 -1;
#X obj 1052 897 f 1;
#X floatatom 1056 942 5 0 0 0 - - -;
#X connect 0 0 9 0;
#X connect 0 0 10 0;
#X connect 2 0 3 0;
#X connect 3 0 4 0;
#X connect 4 0 5 0;
#X connect 5 0 10 1;
#X connect 6 0 7 0;
#X connect 6 0 2 0;
#X connect 7 0 8 0;
#X connect 8 0 9 1;
#X connect 9 0 26 0;
#X connect 10 0 25 0;
#X connect 11 0 14 0;
#X connect 11 0 6 0;
#X connect 11 0 27 0;
#X connect 12 0 13 0;
#X connect 13 0 6 0;
#X connect 15 0 30 0;
#X connect 18 0 19 0;
#X connect 19 0 16 0;
#X connect 19 1 17 0;
#X connect 19 2 20 0;
#X connect 19 3 21 0;
#X connect 21 0 22 0;
#X connect 22 0 23 0;
#X connect 23 0 24 0;
#X connect 25 0 1 1;
#X connect 26 0 1 0;
#X connect 27 0 45 0;
#X connect 28 0 29 1;
#X connect 28 0 31 0;
#X connect 29 0 25 1;
#X connect 29 0 26 1;
#X connect 30 0 55 0;
#X connect 31 0 32 0;
#X connect 33 0 34 0;
#X connect 35 0 33 1;
#X connect 35 0 36 0;
#X connect 36 0 37 0;
#X connect 37 0 38 0;
#X connect 38 0 39 0;
#X connect 38 1 40 0;
#X connect 39 0 41 0;
#X connect 40 0 33 0;
#X connect 41 0 42 0;
#X connect 43 0 44 0;
#X connect 44 0 28 0;
#X connect 45 0 43 1;
#X connect 45 0 46 0;
#X connect 46 0 47 0;
#X connect 47 0 48 0;
#X connect 48 0 49 0;
#X connect 48 1 50 0;
#X connect 49 0 51 0;
#X connect 50 0 43 0;
#X connect 51 0 52 0;
#X connect 52 0 28 0;
#X connect 53 0 54 0;
#X connect 54 0 29 0;
#X connect 55 0 53 1;
#X connect 55 0 56 0;
#X connect 56 0 57 0;
#X connect 57 0 58 0;
#X connect 58 0 59 0;
#X connect 58 1 60 0;
#X connect 59 0 61 0;
#X connect 60 0 53 0;
#X connect 61 0 62 0;
#X connect 62 0 29 0;
