#N canvas 1912 -8 1920 997 12;
#X obj 762 605 dac~;
#X obj 881 179 expr 1 - $f1;
#X floatatom 878 210 5 0 0 0 - - -;
#X obj 878 233 sqrt;
#X floatatom 878 257 5 0 0 0 - - -;
#X floatatom 876 134 5 0 0 0 - - -;
#X obj 809 234 sqrt;
#X floatatom 809 258 5 0 0 0 - - -;
#X obj 741 377 *~;
#X obj 801 363 *~;
#X obj 1039 35 receive z;
#X obj 855 55 loadbang;
#X msg 862 81 1;
#X obj 944 394 receive axis;
#X obj 790 513 /~;
#X obj 749 505 /~;
#X obj 1044 187 abs;
#X floatatom 1133 555 5 0 0 0 - - -;
#X obj 892 711 *~;
#X obj 915 437 abs;
#X obj 1010 568 > 1;
#X floatatom 962 591 5 0 0 0 - - -;
#X obj 1178 392 f 0;
#X floatatom 1201 453 5 0 0 0 - - -;
#X floatatom 1202 142 5 0 0 0 - - -;
#X obj 1216 199 > 1;
#X floatatom 1209 227 5 0 0 0 - - -;
#X obj 1209 250 sel 0 1;
#X obj 1125 355 bng 15 250 50 0 empty empty empty 17 7 0 10 -262144
-1 -1;
#X obj 1179 337 bng 15 250 50 0 empty empty empty 17 7 0 10 -262144
-1 -1;
#X obj 1123 401 f 1;
#X floatatom 1110 455 5 0 0 0 - - -;
#X obj 1153 844 f 0;
#X floatatom 1152 891 5 0 0 0 - - -;
#X floatatom 1106 647 5 0 0 0 - - -;
#X obj 1178 648 > 1;
#X floatatom 1171 676 5 0 0 0 - - -;
#X obj 1171 699 sel 0 1;
#X obj 1168 750 bng 15 250 50 0 empty empty empty 17 7 0 10 -262144
-1 -1;
#X obj 1201 758 bng 15 250 50 0 empty empty empty 17 7 0 10 -262144
-1 -1;
#X obj 1052 897 f 1;
#X floatatom 1056 942 5 0 0 0 - - -;
#N canvas 0 50 450 250 (subpatch) 0;
#X array wave 169603 float 2;
#X coords 0 1 169603 -1 200 140 1;
#X restore 222 235 graph;
#X msg 193 85 read -resize Grudgenoise.wav wave;
#X obj 208 151 soundfiler;
#X floatatom 165 197 10 0 0 0 - - -;
#X obj 277 668 +~;
#X obj 273 607 phasor~;
#X obj 661 181 tabread4~ wave;
#X floatatom 269 507 5 0 0 0 t - -;
#X obj 277 639 *~;
#X obj 412 382 /;
#X floatatom 412 409 5 0 0 0 - - -;
#X obj 406 468 pow -1;
#X floatatom 410 521 5 0 0 0 - - -;
#X obj 278 544 * 1, f 4;
#X floatatom 276 582 5 0 0 0 - - -;
#X obj 186 523 - 1;
#X floatatom 304 185 5 0 0 0 - - -;
#X obj 582 625 vsl 15 128 0 127 0 0 empty empty empty 0 -9 0 10 -262144
-1 -1 0 1;
#X obj 139 8 loadbang;
#X obj 170 51 bng 15 250 50 0 empty empty empty 17 7 0 10 -262144 -1
-1;
#X msg 1248 938 1;
#X obj 1298 853 loadbang;
#X obj 262 427 loadbang;
#X msg 262 451 1;
#X connect 1 0 2 0;
#X connect 2 0 3 0;
#X connect 3 0 4 0;
#X connect 4 0 9 1;
#X connect 5 0 6 0;
#X connect 5 0 1 0;
#X connect 6 0 7 0;
#X connect 7 0 8 1;
#X connect 8 0 15 0;
#X connect 9 0 14 0;
#X connect 10 0 5 0;
#X connect 10 0 16 0;
#X connect 11 0 12 0;
#X connect 12 0 5 0;
#X connect 12 0 4 0;
#X connect 13 0 19 0;
#X connect 14 0 0 1;
#X connect 15 0 0 0;
#X connect 16 0 24 0;
#X connect 17 0 18 1;
#X connect 17 0 20 0;
#X connect 18 0 14 1;
#X connect 18 0 15 1;
#X connect 19 0 34 0;
#X connect 20 0 21 0;
#X connect 22 0 23 0;
#X connect 23 0 17 0;
#X connect 24 0 22 1;
#X connect 24 0 25 0;
#X connect 25 0 26 0;
#X connect 26 0 27 0;
#X connect 27 0 28 0;
#X connect 27 1 29 0;
#X connect 28 0 30 0;
#X connect 29 0 22 0;
#X connect 30 0 31 0;
#X connect 31 0 17 0;
#X connect 32 0 33 0;
#X connect 33 0 18 0;
#X connect 34 0 32 1;
#X connect 34 0 35 0;
#X connect 35 0 36 0;
#X connect 36 0 37 0;
#X connect 37 0 38 0;
#X connect 37 1 39 0;
#X connect 38 0 40 0;
#X connect 39 0 32 0;
#X connect 40 0 41 0;
#X connect 41 0 18 0;
#X connect 43 0 44 0;
#X connect 44 0 45 0;
#X connect 44 1 58 0;
#X connect 45 0 51 0;
#X connect 45 0 57 0;
#X connect 46 0 48 0;
#X connect 47 0 50 0;
#X connect 48 0 8 0;
#X connect 48 0 9 0;
#X connect 49 0 55 0;
#X connect 50 0 46 0;
#X connect 51 0 52 0;
#X connect 52 0 53 0;
#X connect 53 0 54 0;
#X connect 54 0 55 1;
#X connect 55 0 56 0;
#X connect 56 0 47 0;
#X connect 57 0 50 1;
#X connect 58 0 51 1;
#X connect 60 0 61 0;
#X connect 61 0 43 0;
#X connect 62 0 33 0;
#X connect 62 0 41 0;
#X connect 62 0 17 0;
#X connect 63 0 62 0;
#X connect 64 0 65 0;
#X connect 65 0 49 0;
